<svg xmlns="http://www.w3.org/2000/svg" width="256" height="256" viewBox="0 0 256 256" role="img" aria-label="Ariadne">
  <defs>
    <linearGradient id="bg" x1="32" y1="24" x2="224" y2="232" gradientUnits="userSpaceOnUse">
      <stop offset="0" stop-color="#27272a"/>
      <stop offset="1" stop-color="#09090b"/>
    </linearGradient>
    <linearGradient id="thread" x1="58" y1="194" x2="198" y2="54" gradientUnits="userSpaceOnUse">
      <stop offset="0" stop-color="#14b8a6"/>
      <stop offset="0.58" stop-color="#2dd4bf"/>
      <stop offset="1" stop-color="#10b981"/>
    </linearGradient>
    <filter id="soft-shadow" x="-20%" y="-20%" width="140%" height="140%">
      <feDropShadow dx="0" dy="10" stdDeviation="12" flood-color="#000000" flood-opacity="0.35"/>
    </filter>
  </defs>
  <rect width="256" height="256" rx="56" fill="url(#bg)"/>
  <path d="M52 205c28-18 44-44 58-78 9-22 17-45 32-61 12-13 29-18 49-15" fill="none" stroke="#3f3f46" stroke-width="34" stroke-linecap="round" filter="url(#soft-shadow)"/>
  <path d="M52 205c28-18 44-44 58-78 9-22 17-45 32-61 12-13 29-18 49-15" fill="none" stroke="url(#thread)" stroke-width="18" stroke-linecap="round"/>
  <path d="M67 178h77c20 0 36-16 36-36s-16-36-36-36h-39" fill="none" stroke="#14b8a6" stroke-width="15" stroke-linecap="round" stroke-linejoin="round" opacity="0.95"/>
  <path d="M93 151h51c5 0 9-4 9-9s-4-9-9-9h-31" fill="none" stroke="#f59e0b" stroke-width="11" stroke-linecap="round" stroke-linejoin="round"/>
  <circle cx="52" cy="205" r="14" fill="#2dd4bf"/>
  <circle cx="191" cy="51" r="13" fill="#34d399"/>
  <circle cx="94" cy="151" r="9" fill="#fbbf24"/>
  <path d="M128 43 210 214" fill="none" stroke="#a1a1aa" stroke-width="10" stroke-linecap="round" opacity="0.25"/>
</svg>
